<svg width="492" height="92" viewBox="0 0 492 92" fill="none" xmlns="http://www.w3.org/2000/svg">
<path d="M0 91.2V21.3C0 10.2 9 1.3 20 1.3H59.9V2.39999C59.9 8.69999 54.8 13.8 48.5 13.8H14.2V40.6H43.8V40.9C43.8 47.2 38.7 52.3 32.4 52.3H14.2V91H0V91.2Z" fill="white"/>
<path d="M69.8 91.2V12.8C69.8 6.5 74.9 1.39999 81.2 1.39999H84V79.8C84 86.1 78.9 91.2 72.6 91.2H69.8Z" fill="white"/>
<path d="M155.9 13.8H137.5V91.1H123.2V13.8H93.2V12.7C93.2 6.4 98.3 1.3 104.6 1.3H167.3V2.39999C167.3 8.69999 162.2 13.8 155.9 13.8Z" fill="white"/>
<path d="M210.7 91.8C182.2 91.9 168.7 68.4 168.7 45.2C168.7 22.7 183.3 0.399999 211 0.599999C238.9 0.699999 252.9 23.5 252.9 46.2C252.9 69.2 238.8 92 210.7 91.8ZM182.1 46.2C181.3 88.9 240.2 88.9 239.3 46.2C240.2 3.59999 181.3 3.79999 182.1 46.2Z" fill="white"/>
<path d="M264.2 91.2V1.3H266.9C273.2 1.3 278.3 6.4 278.3 12.7V78.6H315.1C321.4 78.6 326.5 83.7 326.5 90V91.1H264.2V91.2Z" fill="white"/>
<path d="M366.9 1.3H379.3L414.7 91.2H407.6C402.9 91.2 398.7 88.3 396.9 83.9L390.2 66.8H355.5L348.9 83.9C347.2 88.3 343 91.2 338.2 91.2H331L366.9 1.3ZM387.5 56.2L373.1 17.6L358.2 56.2H387.5Z" fill="white"/>
<path d="M491.3 68C491.3 71.6 490.6 74.9 489.1 77.7C487.6 80.6 485.6 83 483.2 85C480.7 87 477.8 88.5 474.4 89.6C471 90.7 467.4 91.2 463.6 91.2H420.7V1.3H467C470.1 1.3 472.9 2 475.5 3.3C478 4.7 480.2 6.40001 482 8.60001C483.8 10.8 485.1 13.2 486.1 15.9C487.1 18.6 487.6 21.4 487.6 24.2C487.6 28.6 486.5 32.7 484.2 36.5C482 40.3 478.8 43.2 474.6 45C479.7 46.5 483.8 49.3 486.8 53.3C489.8 57.4 491.3 62.3 491.3 68ZM434.9 13.6V40H461C462.8 40 464.4 39.7 465.9 39C467.4 38.3 468.7 37.4 469.8 36.3C470.9 35.2 471.8 33.8 472.5 32.2C473.1 30.6 473.4 28.8 473.4 26.9C473.4 23 472.3 19.8 470.1 17.3C467.9 14.8 465.1 13.6 461.7 13.6H434.9V13.6ZM476.8 65.4C476.8 63.5 476.5 61.8 475.9 60.1C475.3 58.4 474.4 56.9 473.4 55.7C472.3 54.4 471.1 53.4 469.5 52.7C468 51.9 466.3 51.6 464.6 51.6H435V79.1H463.7C465.6 79.1 467.3 78.7 468.9 78C470.5 77.3 471.9 76.3 473.1 75.1C474.3 73.9 475.2 72.4 475.9 70.8C476.4 69 476.8 67.2 476.8 65.4Z" fill="white"/>
</svg>
