<?xml version="1.0" encoding="utf-8"?>
<!-- Generator: Adobe Illustrator 25.0.1, SVG Export Plug-In . SVG Version: 6.00 Build 0)  -->
<svg version="1.1" id="Layer_1" xmlns="http://www.w3.org/2000/svg" xmlns:xlink="http://www.w3.org/1999/xlink" x="0px" y="0px"
	 viewBox="0 0 491.3 252.8" style="enable-background:new 0 0 491.3 252.8;" xml:space="preserve">
<style type="text/css">
	.st0{fill:#662D91;}
	.st1{fill:url(#XMLID_2_);}
	.st2{fill:url(#XMLID_3_);}
	.st3{fill:url(#XMLID_4_);}
	.st4{fill:url(#XMLID_5_);}
</style>
<g id="XMLID_344_">
	<path id="XMLID_361_" class="st0" d="M0,252.2v-69.9c0-11.1,9-20,20-20h39.9v1.1c0,6.3-5.1,11.4-11.4,11.4H14.2v26.8h29.6v0.3
		c0,6.3-5.1,11.4-11.4,11.4H14.2v38.7H0z"/>
	<path id="XMLID_359_" class="st0" d="M69.8,252.2v-78.4c0-6.3,5.1-11.4,11.4-11.4H84v78.4c0,6.3-5.1,11.4-11.4,11.4H69.8z"/>
	<path id="XMLID_357_" class="st0" d="M155.9,174.8h-18.4v77.3h-14.3v-77.3h-30v-1.1c0-6.3,5.1-11.4,11.4-11.4h62.7v1.1
		C167.3,169.7,162.2,174.8,155.9,174.8z"/>
	<path id="XMLID_354_" class="st0" d="M210.7,252.8c-28.5,0.1-42-23.4-42-46.6c0-22.5,14.6-44.8,42.3-44.6
		c27.9,0.1,41.9,22.9,41.9,45.6C252.9,230.2,238.8,253,210.7,252.8z M182.1,207.2c-0.8,42.7,58.1,42.7,57.2,0
		C240.2,164.6,181.3,164.8,182.1,207.2z"/>
	<path id="XMLID_352_" class="st0" d="M264.2,252.2v-89.9h2.7c6.3,0,11.4,5.1,11.4,11.4v65.9h36.8c6.3,0,11.4,5.1,11.4,11.4v1.1
		H264.2z"/>
	<path id="XMLID_349_" class="st0" d="M366.9,162.3h12.4l35.4,89.9h-7.1c-4.7,0-8.9-2.9-10.7-7.3l-6.7-17.1h-34.7l-6.6,17.1
		c-1.7,4.4-5.9,7.3-10.7,7.3h-7.2L366.9,162.3z M387.5,217.2l-14.4-38.6l-14.9,38.6H387.5z"/>
	<path id="XMLID_345_" class="st0" d="M491.3,229c0,3.6-0.7,6.9-2.2,9.7c-1.5,2.9-3.5,5.3-5.9,7.3c-2.5,2-5.4,3.5-8.8,4.6
		c-3.4,1.1-7,1.6-10.8,1.6h-42.9v-89.9H467c3.1,0,5.9,0.7,8.5,2c2.5,1.4,4.7,3.1,6.5,5.3c1.8,2.2,3.1,4.6,4.1,7.3
		c1,2.7,1.5,5.5,1.5,8.3c0,4.4-1.1,8.5-3.4,12.3c-2.2,3.8-5.4,6.7-9.6,8.5c5.1,1.5,9.2,4.3,12.2,8.3
		C489.8,218.4,491.3,223.3,491.3,229z M434.9,174.6V201h26.1c1.8,0,3.4-0.3,4.9-1c1.5-0.7,2.8-1.6,3.9-2.7c1.1-1.1,2-2.5,2.7-4.1
		c0.6-1.6,0.9-3.4,0.9-5.3c0-3.9-1.1-7.1-3.3-9.6c-2.2-2.5-5-3.7-8.4-3.7H434.9z M476.8,226.4c0-1.9-0.3-3.6-0.9-5.3
		c-0.6-1.7-1.5-3.2-2.5-4.4c-1.1-1.3-2.3-2.3-3.9-3c-1.5-0.8-3.2-1.1-4.9-1.1h-29.6v27.5h28.7c1.9,0,3.6-0.4,5.2-1.1
		c1.6-0.7,3-1.7,4.2-2.9c1.2-1.2,2.1-2.7,2.8-4.3C476.4,230,476.8,228.2,476.8,226.4z"/>
</g>
<g id="XMLID_94_">
	<g id="XMLID_96_">
		<linearGradient id="XMLID_2_" gradientUnits="userSpaceOnUse" x1="195.0275" y1="-39.5942" x2="308.1902" y2="139.0462">
			<stop  offset="0" style="stop-color:#EDDB00"/>
			<stop  offset="0.1821" style="stop-color:#DBD70C"/>
			<stop  offset="0.5473" style="stop-color:#ABCD2B"/>
			<stop  offset="0.7557" style="stop-color:#8DC63F"/>
		</linearGradient>
		<path id="XMLID_99_" class="st1" d="M261.8,135.6l-32.1,0c-3.2,0-6.3-1.2-8.4-3.6c-2.5-2.8-3.3-6.6-2.2-10.2l8.9-23.8
			c2.3-6.1,3.5-12.6,3.5-19.2l0-17.2c-27-1.8-48.4-24.4-48.4-51.8c0-2,1.6-3.5,3.6-3.5c29.4,0,51.7,20.8,51.9,48.4H253
			c1.8-27,24.4-48.4,51.8-48.4c2,0,3.6,1.6,3.6,3.6c0,27.4-21.4,50-48.4,51.8v17.2c0,6.5,1.2,13,3.5,19.2l8.8,23.6
			c1.1,3.8,0.3,7.5-2.1,10.3C268.1,134.4,264.9,135.6,261.8,135.6z M238.4,61.8l0,17.7c0,7-1.2,13.9-3.7,20.4l-9,24.2
			c-0.3,0.9-0.1,2,0.6,2.9c0.7,0.9,1.7,1.4,2.9,1.4h33c1.1,0,2.2-0.5,2.9-1.4c0.7-0.9,0.9-2.1,0.5-3.1l-8.9-24
			c-2.4-6.5-3.7-13.4-3.7-20.4V61.8H238.4z M190.2,13.5c1.8,21.8,19.3,39.3,41.1,41C231,32.2,213.6,15.2,190.2,13.5z M301.2,13.6
			c-21.8,1.8-39.2,19.2-41,41C282,52.8,299.4,35.3,301.2,13.6z"/>
		<linearGradient id="XMLID_3_" gradientUnits="userSpaceOnUse" x1="200.3771" y1="-42.9879" x2="313.5585" y2="135.6822">
			<stop  offset="0" style="stop-color:#EDDB00"/>
			<stop  offset="0.1821" style="stop-color:#DBD70C"/>
			<stop  offset="0.5473" style="stop-color:#ABCD2B"/>
			<stop  offset="0.7557" style="stop-color:#8DC63F"/>
		</linearGradient>
		<path id="XMLID_98_" class="st2" d="M238.5,0c-1,3.7-1.7,7.4-1.6,10.8c0.1,1.7,0.4,3.3,0.9,4.8c0.6,1.4,1.5,2.6,2.6,3.6
			c0.4,0.4,1.5,1.2,2.3,2c0.8,0.9,1.4,1.8,1.9,2.8c1,2,1.4,4.2,1.5,6.2c0.1,4.1-0.9,8.1-3,11.4c0-3.9-0.2-7.6-0.9-10.9
			c-0.4-1.7-0.9-3.2-1.7-4.5c-0.4-0.7-0.8-1.3-1.3-1.8c-0.5-0.6-0.9-0.9-1.9-1.7c-1.7-1.5-2.9-3.6-3.5-5.7c-0.6-2.2-0.7-4.3-0.3-6.4
			C234.1,6.5,235.9,2.9,238.5,0z"/>
		<linearGradient id="XMLID_4_" gradientUnits="userSpaceOnUse" x1="207.7803" y1="-47.6776" x2="320.9618" y2="130.9925">
			<stop  offset="0" style="stop-color:#EDDB00"/>
			<stop  offset="0.1821" style="stop-color:#DBD70C"/>
			<stop  offset="0.5473" style="stop-color:#ABCD2B"/>
			<stop  offset="0.7557" style="stop-color:#8DC63F"/>
		</linearGradient>
		<path id="XMLID_97_" class="st3" d="M249.9,31.5c0.5-2.9,0.9-5.6,0.7-8.1c-0.2-2.5-1-4.4-2.6-5.7c-0.3-0.2-1.2-0.9-1.7-1.6
			c-0.6-0.7-1.1-1.4-1.5-2.2c-0.8-1.6-1.1-3.3-1.1-4.8c0-3.2,0.9-6.1,2.7-8.5c0.3,3,0.5,5.7,1.2,8.1c0.3,1.2,0.7,2.3,1.3,3.2
			c0.3,0.4,0.6,0.8,0.9,1.2c0.4,0.4,0.6,0.6,1.4,1.2c1.3,1.2,2.3,2.8,2.8,4.5c0.5,1.7,0.5,3.4,0.2,5C253.5,26.8,252,29.5,249.9,31.5
			z"/>
	</g>
	<linearGradient id="XMLID_5_" gradientUnits="userSpaceOnUse" x1="226.2172" y1="82.2861" x2="259.718" y2="135.171">
		<stop  offset="0" style="stop-color:#EDDB00"/>
		<stop  offset="0.1821" style="stop-color:#DBD70C"/>
		<stop  offset="0.5473" style="stop-color:#ABCD2B"/>
		<stop  offset="0.7557" style="stop-color:#8DC63F"/>
	</linearGradient>
	<path id="XMLID_95_" class="st4" d="M239.7,85.5c0,5.7-1,11.4-3,16.8l-7.4,19.9c-0.2,0.7,0,1.7,0.5,2.4c0.6,0.8,1.4,1.2,2.3,1.2
		h27.1c0.9,0,1.8-0.4,2.3-1.2c0.6-0.8,0.7-1.7,0.5-2.6l-7.4-19.7c-2-5.4-3-11.1-3-16.8L239.7,85.5z"/>
</g>
</svg>
